<svg id="Layer_1" height="512" viewBox="0 0 512 512" width="512" xmlns="http://www.w3.org/2000/svg" data-name="Layer 1"><path d="m473.414 130.466c-.861-16.488-6.067-30.981-15.588-42.652-18.743-22.976-51.539-31.8-92.345-24.842-39.385 6.716-81.938 27.433-119.818 58.337-64.944 52.981-100.763 123.436-88.852 173.485l-117.734 90.517c-11.022 8.443-18.436 20.615-19.833 32.56-1 8.6 1.168 16.677 6.121 22.747s12.429 9.822 21.054 10.564q1.6.138 3.235.137c11.115 0 23.1-4.738 32.648-13.03l111.978-97.311a85.779 85.779 0 0 0 17.618 6l17.862 21.9a7 7 0 1 0 10.848-8.85l-8.558-10.492c1.595.06 3.2.1 4.826.1a144.443 144.443 0 0 0 14.728-.79l16.532 20.254a7 7 0 0 0 10.849-8.85l-11.306-13.86q8.258-1.651 16.752-4.128l16.453 20.169a7 7 0 1 0 10.848-8.85l-13.052-16q7.526-2.751 15.132-6.115l16.232 19.9a7 7 0 1 0 10.849-8.849l-14.046-17.217q6.981-3.537 13.95-7.563l15.666 19.2a7 7 0 1 0 10.849-8.849l-14.455-17.72q6.517-4.182 12.958-8.78l15.452 18.943a7 7 0 1 0 10.849-8.849l-15.075-18.481c1.8-1.4 3.587-2.824 5.368-4.277q3.393-2.769 6.688-5.608l15.1 18.511a7 7 0 1 0 10.848-8.85l-15.525-19.028q5.756-5.408 11.139-11.009l14.593 17.891a7 7 0 0 0 10.849-8.85l-15.87-19.455q5.3-6.043 10.137-12.239l13.577 16.645a7 7 0 0 0 10.849-8.849l-15.831-19.408q4.753-6.809 8.926-13.723l13.5 16.554a7 7 0 0 0 10.849-8.849l-17.008-20.857q4.044-7.86 7.27-15.752l12 14.716a7 7 0 0 0 10.849-8.85l-17.381-21.308a137.357 137.357 0 0 0 4.362-19.317l8.242 10.1a7 7 0 1 0 10.848-8.85zm-22.844 47.724a185.5 185.5 0 0 1 -9.689 20.827q-.165.273-.3.556a226.8 226.8 0 0 1 -15.7 24.773 6.979 6.979 0 0 0 -.7.95 268.124 268.124 0 0 1 -18.046 22.011 7.125 7.125 0 0 0 -.57.626 304.539 304.539 0 0 1 -32 30.149c-52.5 42.83-113.946 63.972-156.155 55.73q-.279-.067-.561-.114a70.128 70.128 0 0 1 -20.191-7.227 7 7 0 0 0 -7.987.838l-115.55 100.41c-7.683 6.67-17.216 10.226-25.5 9.514-3.409-.293-8.155-1.479-11.407-5.464s-3.46-8.874-3.063-12.272c.966-8.26 6.365-16.885 14.452-23.08l121.46-93.382a7 7 0 0 0 2.423-7.609c-13.619-44.245 21.3-112.91 83.028-163.27 36.038-29.4 76.283-49.068 113.322-55.383a141.348 141.348 0 0 1 23.69-2.122c24.379 0 43.643 7.534 55.455 22.013 7.843 9.614 12.018 21.834 12.51 35.95a7.006 7.006 0 0 0 .035 1.237c.258 13.325-2.713 28.294-8.956 44.339z"/></svg>