<svg id="Layer_1" enable-background="new 0 0 511.92 511.92" height="512" viewBox="0 0 511.92 511.92" width="512" xmlns="http://www.w3.org/2000/svg"><g><g><path d="m224.15 367.136c-12.992 0-25.984-2.122-37.572-6.365-3.89-1.424-5.888-5.732-4.464-9.621 1.424-3.891 5.732-5.89 9.621-4.464 19.994 7.32 44.835 7.32 64.829 0 3.889-1.423 8.198.574 9.621 4.464 1.424 3.889-.574 8.197-4.464 9.621-11.586 4.244-24.579 6.365-37.571 6.365z"/></g><g><path d="m392.435 437.535c-20.013 7.302-44.859 7.301-64.842.001-3.89-1.422-8.197.58-9.618 4.471s.58 8.197 4.471 9.618c11.58 4.23 24.565 6.345 37.557 6.345 12.988 0 25.983-2.115 37.574-6.344 3.891-1.42 5.895-5.725 4.475-9.616s-5.729-5.893-9.617-4.475z"/><path d="m427.915 447.654c-4.142 0-7.5 3.358-7.5 7.5v49.267c0 4.142 3.358 7.5 7.5 7.5s7.5-3.358 7.5-7.5v-49.267c0-4.142-3.358-7.5-7.5-7.5z"/><g><path d="m120.739 403.547c-20.006 7.299-44.865 7.3-64.873 0-3.891-1.42-8.196.584-9.616 4.475-1.419 3.892.584 8.197 4.475 9.617 11.59 4.228 24.584 6.342 37.578 6.342s25.988-2.114 37.577-6.342c3.892-1.42 5.895-5.725 4.476-9.617-1.421-3.891-5.727-5.893-9.617-4.475z"/><path d="m486.057 14.705c-.047-.049-.095-.099-.144-.147-18.732-18.733-48.14-19.483-66.962-1.693l-10.233 9.723c-3.003 2.853-3.124 7.601-.271 10.603 2.854 3.003 7.602 3.125 10.603.271l10.218-9.709c12.842-12.136 33.012-11.541 45.966 1.339 12.238 13.007 11.659 33.539-1.309 45.816l-44.058 41.692-44.657-47.169 12.237-11.612c3.004-2.851 3.129-7.598.278-10.603-2.851-3.003-7.598-3.129-10.603-.278l-38.803 36.819c-6.275 5.949-6.543 15.893-.599 22.165l4.714 4.98s-63.578 60.191-64.429 61.007c-5.528 5.299-10.886 10.433-18.129 14.878l-.256-8.951c-.136-6.946-5.84-12.597-12.714-12.597h-65.507c-6.922 0-12.506 5.501-12.713 12.535l-.606 21.694c-18.449 14.31-29.358 36.313-29.358 59.615v11.862c-4.058-5.439-8.863-10.37-14.338-14.618l-.599-21.731c-.208-7.005-5.804-12.493-12.741-12.493h-65.481c-6.937 0-12.533 5.488-12.741 12.509l-.598 21.716c-18.438 14.307-29.34 36.312-29.34 59.623v192.47c0 4.142 3.358 7.5 7.5 7.5s7.5-3.358 7.5-7.5v-192.471c0-14.072 4.97-27.557 13.752-38.26l-1.536 55.711c-.339 12.439 4.377 24.328 13.28 33.477 9.236 9.491 21.964 14.934 34.922 14.934 13.025 0 25.735-5.38 34.869-14.761 8.931-9.172 13.666-21.12 13.333-33.651l-1.535-55.71c8.746 10.658 13.708 24.076 13.749 38.083v192.647c0 4.142 3.358 7.5 7.5 7.5h.002s.001 0 .002 0c4.142 0 7.5-3.358 7.5-7.5v-192.47c0-.089-.004-.178-.004-.267v-56.6c0-14.07 4.977-27.556 13.771-38.261l-1.528 55.745c-.339 12.423 4.374 24.3 13.272 33.444 9.238 9.493 21.969 14.938 34.93 14.938 13.037 0 25.754-5.388 34.891-14.782 8.915-9.167 13.632-21.101 13.283-33.6l-1.346-49.272c1.845.724 3.69 1.314 5.536 1.778 5.272 9.154 8.053 19.463 8.053 30.01v249.337c0 4.142 3.358 7.5 7.5 7.5h.001c4.142 0 7.5-3.358 7.5-7.5v-158.49c0-14.079 4.974-27.567 13.761-38.267l-1.519 55.717c-.354 12.427 4.349 24.312 13.244 33.464 9.238 9.505 21.969 14.956 34.93 14.956 13.026 0 25.735-5.38 34.87-14.762 8.931-9.172 13.666-21.12 13.332-33.651l-1.535-55.718c8.779 10.697 13.748 24.182 13.748 38.26v74.58c0 4.142 3.358 7.5 7.5 7.5s7.5-3.358 7.5-7.5v-74.58c0-23.321-10.901-45.326-29.336-59.619l-.599-21.728c-.208-7.005-5.792-12.493-12.712-12.493h-65.508c-6.936 0-12.533 5.488-12.741 12.511l-.592 21.718c-5.473 4.246-10.287 9.166-14.344 14.604v-45.84c0-10.161-2.065-20.141-6.022-29.417 6.123-1.103 12.279-3.61 18.491-7.531 5.522-3.495 11.078-7.984 18.012-14.555l60.057-56.863 1.262 1.333c2.875 3.061 6.778 4.808 10.988 4.92.144.003.287.005.43.005 4.049 0 7.868-1.527 10.768-4.302l20.901-19.778c.091-.079.186-.152.275-.236.084-.08.158-.166.238-.249l49.254-46.608c19.002-17.987 19.818-48.086 1.823-67.096zm-373.632 337.881c-6.328 6.499-15.12 10.226-24.123 10.226-8.933 0-17.744-3.789-24.172-10.396-6.054-6.222-9.263-14.25-9.036-22.604l2.664-96.71h61.087l2.664 96.704c.226 8.443-3.001 16.533-9.084 22.78zm135.877-56.878c-6.329 6.508-15.126 10.24-24.137 10.24-8.936 0-17.749-3.791-24.18-10.399-6.049-6.217-9.255-14.234-9.028-22.573l2.664-96.738h61.061l.385 13.445c-2.147.738-4.429 1.433-6.873 2.076-2.562.674-4.578 2.649-5.305 5.197-.726 2.547-.054 5.289 1.767 7.213 3.707 3.915 7.401 7.293 11.087 10.168l1.602 58.642c.234 8.42-2.978 16.492-9.043 22.729zm78.517 68.09 2.636-96.708h61.086l2.664 96.704c.225 8.443-3.001 16.533-9.084 22.78-6.328 6.499-15.121 10.226-24.123 10.226-8.932 0-17.743-3.794-24.173-10.411-6.045-6.221-9.244-14.24-9.006-22.591zm-7.072-171.108c-6.202 5.877-11.05 9.815-15.71 12.765-9.961 6.287-22.302 10.381-39.527-3.286 16.205-6.494 25.494-15.397 33.875-23.432.83-.796 15.951-15.123 15.951-15.123l16.276 18.786zm21.767-20.613-16.275-18.784 37.502-35.494 12.458 13.155 4.609 4.869zm61.715-34.27c-.123.118-.279.182-.459.169-.185-.005-.338-.071-.475-.217l-6.385-6.745c-.018-.019-.033-.04-.051-.059l-10.133-10.7-27.115-28.647c-.241-.253-.227-.722.031-.966l15.687-14.885 44.643 47.154z"/></g></g></g></svg>